<mxfile host="app.diagrams.net" modified="2021-09-29T11:40:22.825Z" agent="5.0 (Windows NT 10.0; Win64; x64) AppleWebKit/537.36 (KHTML, like Gecko) Chrome/94.0.4606.61 Safari/537.36" etag="ri3go6g4OGnA2mAz2hXD" version="15.3.7" type="github">
  <diagram id="C5RBs43oDa-KdzZeNtuy" name="Page-1">
    <mxGraphModel dx="981" dy="526" grid="1" gridSize="10" guides="1" tooltips="1" connect="1" arrows="1" fold="1" page="1" pageScale="1" pageWidth="827" pageHeight="1169" math="0" shadow="0">
      <root>
        <mxCell id="WIyWlLk6GJQsqaUBKTNV-0" />
        <mxCell id="WIyWlLk6GJQsqaUBKTNV-1" parent="WIyWlLk6GJQsqaUBKTNV-0" />
        <mxCell id="c3OAgtWylzfshOaT56zN-23" value="User Object: Class Object" style="swimlane;fontStyle=5;childLayout=stackLayout;horizontal=1;startSize=26;fillColor=none;horizontalStack=0;resizeParent=1;resizeParentMax=0;resizeLast=0;collapsible=1;marginBottom=0;rounded=0;shadow=0;sketch=0;" vertex="1" collapsed="1" parent="WIyWlLk6GJQsqaUBKTNV-1">
          <mxGeometry x="50" y="51" width="180" height="26" as="geometry">
            <mxRectangle x="470" y="230" width="230" height="140" as="alternateBounds" />
          </mxGeometry>
        </mxCell>
        <mxCell id="c3OAgtWylzfshOaT56zN-24" value="+ Initialize(ID, Username, Password, &#xa;Email, FirstName, LastName)&#xa;" style="text;strokeColor=none;fillColor=none;align=left;verticalAlign=top;spacingLeft=4;spacingRight=4;overflow=hidden;rotatable=0;points=[[0,0.5],[1,0.5]];portConstraint=eastwest;" vertex="1" parent="c3OAgtWylzfshOaT56zN-23">
          <mxGeometry y="26" width="180" height="34" as="geometry" />
        </mxCell>
        <mxCell id="c3OAgtWylzfshOaT56zN-25" value="+ EncodeJson(user object): Dictionary to &#xa;                                             Json String" style="text;strokeColor=none;fillColor=none;align=left;verticalAlign=top;spacingLeft=4;spacingRight=4;overflow=hidden;rotatable=0;points=[[0,0.5],[1,0.5]];portConstraint=eastwest;" vertex="1" parent="c3OAgtWylzfshOaT56zN-23">
          <mxGeometry y="60" width="180" height="40" as="geometry" />
        </mxCell>
        <mxCell id="c3OAgtWylzfshOaT56zN-26" value="+ DecodeJson(json string): Json String to&#xa;                                            Dictionary" style="text;strokeColor=none;fillColor=none;align=left;verticalAlign=top;spacingLeft=4;spacingRight=4;overflow=hidden;rotatable=0;points=[[0,0.5],[1,0.5]];portConstraint=eastwest;" vertex="1" parent="c3OAgtWylzfshOaT56zN-23">
          <mxGeometry y="100" width="180" height="40" as="geometry" />
        </mxCell>
        <mxCell id="c3OAgtWylzfshOaT56zN-31" value="&lt;b&gt;SmartChat&lt;br&gt;Config.py&amp;nbsp;&lt;/b&gt;" style="html=1;rounded=0;shadow=0;glass=0;sketch=0;fillColor=none;align=right;" vertex="1" parent="WIyWlLk6GJQsqaUBKTNV-1">
          <mxGeometry x="640" y="51" width="120" height="60" as="geometry" />
        </mxCell>
        <mxCell id="c3OAgtWylzfshOaT56zN-30" value="&lt;font style=&quot;font-size: 10px&quot;&gt;YML&lt;/font&gt;" style="label;whiteSpace=wrap;html=1;align=center;verticalAlign=bottom;spacingLeft=0;spacingBottom=4;imageAlign=center;imageVerticalAlign=top;image=img/clipart/Gear_128x128.png;rounded=0;shadow=0;sketch=0;glass=0;fillColor=none;strokeColor=none;" vertex="1" parent="WIyWlLk6GJQsqaUBKTNV-1">
          <mxGeometry x="640" y="46" width="50" height="70" as="geometry" />
        </mxCell>
        <mxCell id="c3OAgtWylzfshOaT56zN-41" value="Database Object: Class Object&#xa;" style="swimlane;fontStyle=5;childLayout=stackLayout;horizontal=1;startSize=26;fillColor=none;horizontalStack=0;resizeParent=1;resizeParentMax=0;resizeLast=0;collapsible=1;marginBottom=0;rounded=0;shadow=0;sketch=0;verticalAlign=top;" vertex="1" collapsed="1" parent="WIyWlLk6GJQsqaUBKTNV-1">
          <mxGeometry x="340" y="330" width="220" height="26" as="geometry">
            <mxRectangle x="200" y="300" width="210" height="136" as="alternateBounds" />
          </mxGeometry>
        </mxCell>
        <mxCell id="c3OAgtWylzfshOaT56zN-42" value="+ Connect (connection string) &#xa;" style="text;strokeColor=default;fillColor=none;align=left;verticalAlign=top;spacingLeft=4;spacingRight=4;overflow=hidden;rotatable=0;points=[[0,0.5],[1,0.5]];portConstraint=eastwest;" vertex="1" parent="c3OAgtWylzfshOaT56zN-41">
          <mxGeometry y="26" width="220" height="22" as="geometry" />
        </mxCell>
        <mxCell id="c3OAgtWylzfshOaT56zN-43" value="+ Add(User object)&#xa;&#xa;" style="text;strokeColor=default;fillColor=none;align=left;verticalAlign=top;spacingLeft=4;spacingRight=4;overflow=hidden;rotatable=0;points=[[0,0.5],[1,0.5]];portConstraint=eastwest;" vertex="1" parent="c3OAgtWylzfshOaT56zN-41">
          <mxGeometry y="48" width="220" height="22" as="geometry" />
        </mxCell>
        <mxCell id="c3OAgtWylzfshOaT56zN-44" value="+ Query(Username)&#xa;&#xa;" style="text;strokeColor=default;fillColor=none;align=left;verticalAlign=top;spacingLeft=4;spacingRight=4;overflow=hidden;rotatable=0;points=[[0,0.5],[1,0.5]];portConstraint=eastwest;" vertex="1" parent="c3OAgtWylzfshOaT56zN-41">
          <mxGeometry y="70" width="220" height="22" as="geometry" />
        </mxCell>
        <mxCell id="c3OAgtWylzfshOaT56zN-45" value="+ Delete(User Id)&#xa;&#xa;" style="text;strokeColor=default;fillColor=none;align=left;verticalAlign=top;spacingLeft=4;spacingRight=4;overflow=hidden;rotatable=0;points=[[0,0.5],[1,0.5]];portConstraint=eastwest;" vertex="1" parent="c3OAgtWylzfshOaT56zN-41">
          <mxGeometry y="92" width="220" height="22" as="geometry" />
        </mxCell>
        <mxCell id="c3OAgtWylzfshOaT56zN-46" value="+ Update(User object)" style="text;strokeColor=none;fillColor=none;align=left;verticalAlign=top;spacingLeft=4;spacingRight=4;overflow=hidden;rotatable=0;points=[[0,0.5],[1,0.5]];portConstraint=eastwest;" vertex="1" parent="c3OAgtWylzfshOaT56zN-41">
          <mxGeometry y="114" width="220" height="22" as="geometry" />
        </mxCell>
        <mxCell id="c3OAgtWylzfshOaT56zN-48" value="ServerSocket: Class Object" style="swimlane;fontStyle=5;childLayout=stackLayout;horizontal=1;startSize=26;fillColor=none;horizontalStack=0;resizeParent=1;resizeParentMax=0;resizeLast=0;collapsible=1;marginBottom=0;rounded=0;shadow=0;glass=0;sketch=0;strokeColor=default;align=center;verticalAlign=top;" vertex="1" collapsed="1" parent="WIyWlLk6GJQsqaUBKTNV-1">
          <mxGeometry x="55" y="330" width="190" height="26" as="geometry">
            <mxRectangle x="200" y="165" width="196" height="98" as="alternateBounds" />
          </mxGeometry>
        </mxCell>
        <mxCell id="c3OAgtWylzfshOaT56zN-49" value="ip address, port, socket" style="text;strokeColor=default;fillColor=none;align=left;verticalAlign=top;spacingLeft=4;spacingRight=4;overflow=hidden;rotatable=0;points=[[0,0.5],[1,0.5]];portConstraint=eastwest;" vertex="1" parent="c3OAgtWylzfshOaT56zN-48">
          <mxGeometry y="26" width="190" height="24" as="geometry" />
        </mxCell>
        <mxCell id="c3OAgtWylzfshOaT56zN-50" value="+ Initialize()" style="text;strokeColor=none;fillColor=none;align=left;verticalAlign=top;spacingLeft=4;spacingRight=4;overflow=hidden;rotatable=0;points=[[0,0.5],[1,0.5]];portConstraint=eastwest;" vertex="1" parent="c3OAgtWylzfshOaT56zN-48">
          <mxGeometry y="50" width="190" height="22" as="geometry" />
        </mxCell>
        <mxCell id="c3OAgtWylzfshOaT56zN-51" value="+ listen()" style="text;strokeColor=none;fillColor=none;align=left;verticalAlign=top;spacingLeft=4;spacingRight=4;overflow=hidden;rotatable=0;points=[[0,0.5],[1,0.5]];portConstraint=eastwest;" vertex="1" parent="c3OAgtWylzfshOaT56zN-48">
          <mxGeometry y="72" width="190" height="26" as="geometry" />
        </mxCell>
        <mxCell id="c3OAgtWylzfshOaT56zN-52" value="&lt;b&gt;&lt;u&gt;&lt;font style=&quot;font-size: 12px&quot;&gt;ClientThread: Thread Class Object&lt;/font&gt;&lt;/u&gt;&lt;/b&gt;" style="swimlane;fontStyle=0;childLayout=stackLayout;horizontal=1;startSize=26;fillColor=none;horizontalStack=0;resizeParent=1;resizeParentMax=0;resizeLast=0;collapsible=1;marginBottom=0;rounded=0;shadow=0;glass=0;sketch=0;verticalAlign=bottom;html=1;perimeterSpacing=0;strokeWidth=1;strokeColor=default;fontSize=11;" vertex="1" collapsed="1" parent="WIyWlLk6GJQsqaUBKTNV-1">
          <mxGeometry x="50" y="220" width="200" height="26" as="geometry">
            <mxRectangle x="200" y="90" width="240" height="70" as="alternateBounds" />
          </mxGeometry>
        </mxCell>
        <mxCell id="c3OAgtWylzfshOaT56zN-53" value="Server Object, Socket Object, IP Address" style="text;strokeColor=default;fillColor=none;align=left;verticalAlign=top;spacingLeft=4;spacingRight=4;overflow=hidden;rotatable=0;points=[[0,0.5],[1,0.5]];portConstraint=eastwest;" vertex="1" parent="c3OAgtWylzfshOaT56zN-52">
          <mxGeometry y="26" width="200" height="22" as="geometry" />
        </mxCell>
        <mxCell id="c3OAgtWylzfshOaT56zN-54" value="+ Run()" style="text;strokeColor=none;fillColor=none;align=left;verticalAlign=top;spacingLeft=4;spacingRight=4;overflow=hidden;rotatable=0;points=[[0,0.5],[1,0.5]];portConstraint=eastwest;" vertex="1" parent="c3OAgtWylzfshOaT56zN-52">
          <mxGeometry y="48" width="200" height="22" as="geometry" />
        </mxCell>
        <mxCell id="c3OAgtWylzfshOaT56zN-57" value="&lt;i&gt;&lt;u&gt;&lt;font style=&quot;font-size: 12px&quot;&gt;Protocol.py&lt;/font&gt;&lt;/u&gt;&lt;/i&gt;" style="swimlane;fontStyle=1;align=center;verticalAlign=middle;childLayout=stackLayout;horizontal=1;startSize=26;horizontalStack=0;resizeParent=1;resizeParentMax=0;resizeLast=0;collapsible=1;marginBottom=0;rounded=0;shadow=0;glass=0;sketch=0;fontSize=11;strokeColor=default;strokeWidth=1;fillColor=none;html=1;" vertex="1" collapsed="1" parent="WIyWlLk6GJQsqaUBKTNV-1">
          <mxGeometry x="670" y="330" width="90" height="26" as="geometry">
            <mxRectangle x="200" y="360" width="170" height="310" as="alternateBounds" />
          </mxGeometry>
        </mxCell>
        <mxCell id="c3OAgtWylzfshOaT56zN-58" value="Globals" style="text;strokeColor=none;fillColor=none;align=left;verticalAlign=middle;spacingLeft=4;spacingRight=4;overflow=hidden;rotatable=0;points=[[0,0.5],[1,0.5]];portConstraint=eastwest;fontStyle=1" vertex="1" parent="c3OAgtWylzfshOaT56zN-57">
          <mxGeometry y="26" width="90" height="24" as="geometry" />
        </mxCell>
        <mxCell id="c3OAgtWylzfshOaT56zN-60" value="Request: Class Object" style="text;strokeColor=default;fillColor=none;align=left;verticalAlign=middle;spacingLeft=4;spacingRight=4;overflow=hidden;rotatable=0;points=[[0,0.5],[1,0.5]];portConstraint=eastwest;fontStyle=5" vertex="1" parent="c3OAgtWylzfshOaT56zN-57">
          <mxGeometry y="50" width="90" height="22" as="geometry" />
        </mxCell>
        <mxCell id="c3OAgtWylzfshOaT56zN-66" value="Command, Request ID,&#xa;Payload" style="text;strokeColor=none;fillColor=none;align=left;verticalAlign=middle;spacingLeft=4;spacingRight=4;overflow=hidden;rotatable=0;points=[[0,0.5],[1,0.5]];portConstraint=eastwest;fontStyle=0;fontSize=11;" vertex="1" parent="c3OAgtWylzfshOaT56zN-57">
          <mxGeometry y="72" width="90" height="32" as="geometry" />
        </mxCell>
        <mxCell id="c3OAgtWylzfshOaT56zN-67" value="+ EncodeJson(object): &#xa;Dictionary to Json String" style="text;strokeColor=none;fillColor=none;align=left;verticalAlign=middle;spacingLeft=4;spacingRight=4;overflow=hidden;rotatable=0;points=[[0,0.5],[1,0.5]];portConstraint=eastwest;fontStyle=0" vertex="1" parent="c3OAgtWylzfshOaT56zN-57">
          <mxGeometry y="104" width="90" height="38" as="geometry" />
        </mxCell>
        <mxCell id="c3OAgtWylzfshOaT56zN-68" value="+ DecodeJson(json string):&#xa;Json String to Dictionary" style="text;strokeColor=none;fillColor=none;align=left;verticalAlign=middle;spacingLeft=4;spacingRight=4;overflow=hidden;rotatable=0;points=[[0,0.5],[1,0.5]];portConstraint=eastwest;fontStyle=0" vertex="1" parent="c3OAgtWylzfshOaT56zN-57">
          <mxGeometry y="142" width="90" height="38" as="geometry" />
        </mxCell>
        <mxCell id="c3OAgtWylzfshOaT56zN-69" value="Response: Class Object" style="text;strokeColor=default;fillColor=none;align=left;verticalAlign=middle;spacingLeft=4;spacingRight=4;overflow=hidden;rotatable=0;points=[[0,0.5],[1,0.5]];portConstraint=eastwest;fontStyle=1" vertex="1" parent="c3OAgtWylzfshOaT56zN-57">
          <mxGeometry y="180" width="90" height="22" as="geometry" />
        </mxCell>
        <mxCell id="c3OAgtWylzfshOaT56zN-70" value="Response Code, Request ID,&#xa;Message, Payload" style="text;strokeColor=none;fillColor=none;align=left;verticalAlign=middle;spacingLeft=4;spacingRight=4;overflow=hidden;rotatable=0;points=[[0,0.5],[1,0.5]];portConstraint=eastwest;fontStyle=0" vertex="1" parent="c3OAgtWylzfshOaT56zN-57">
          <mxGeometry y="202" width="90" height="32" as="geometry" />
        </mxCell>
        <mxCell id="c3OAgtWylzfshOaT56zN-71" value="+ EncodeJson(object):&#xa;Dictionary to Json String" style="text;strokeColor=none;fillColor=none;align=left;verticalAlign=middle;spacingLeft=4;spacingRight=4;overflow=hidden;rotatable=0;points=[[0,0.5],[1,0.5]];portConstraint=eastwest;fontStyle=0" vertex="1" parent="c3OAgtWylzfshOaT56zN-57">
          <mxGeometry y="234" width="90" height="38" as="geometry" />
        </mxCell>
        <mxCell id="c3OAgtWylzfshOaT56zN-72" value="+ DecodeJson(json string):&#xa;Json String to Dictionary" style="text;strokeColor=none;fillColor=none;align=left;verticalAlign=middle;spacingLeft=4;spacingRight=4;overflow=hidden;rotatable=0;points=[[0,0.5],[1,0.5]];portConstraint=eastwest;fontStyle=0" vertex="1" parent="c3OAgtWylzfshOaT56zN-57">
          <mxGeometry y="272" width="90" height="38" as="geometry" />
        </mxCell>
        <mxCell id="c3OAgtWylzfshOaT56zN-75" value="Client" style="swimlane;fontStyle=5;align=center;verticalAlign=top;childLayout=stackLayout;horizontal=1;startSize=22;horizontalStack=0;resizeParent=1;resizeParentMax=0;resizeLast=0;collapsible=1;marginBottom=0;rounded=0;shadow=0;glass=0;sketch=0;fontSize=11;strokeColor=default;strokeWidth=1;fillColor=none;html=1;" vertex="1" parent="WIyWlLk6GJQsqaUBKTNV-1">
          <mxGeometry x="200" y="410" width="200" height="100" as="geometry" />
        </mxCell>
        <mxCell id="c3OAgtWylzfshOaT56zN-76" value="connects, sends &amp; receives data&#xa;to and from server &amp; clients and&#xa;creates threads for different clients" style="text;strokeColor=none;fillColor=none;align=left;verticalAlign=middle;spacingLeft=4;spacingRight=4;overflow=hidden;rotatable=0;points=[[0,0.5],[1,0.5]];portConstraint=eastwest;" vertex="1" parent="c3OAgtWylzfshOaT56zN-75">
          <mxGeometry y="22" width="200" height="48" as="geometry" />
        </mxCell>
        <mxCell id="c3OAgtWylzfshOaT56zN-77" value="" style="line;strokeWidth=1;fillColor=none;align=left;verticalAlign=middle;spacingTop=-1;spacingLeft=3;spacingRight=3;rotatable=0;labelPosition=right;points=[];portConstraint=eastwest;" vertex="1" parent="c3OAgtWylzfshOaT56zN-75">
          <mxGeometry y="70" width="200" height="8" as="geometry" />
        </mxCell>
        <mxCell id="c3OAgtWylzfshOaT56zN-78" value="+ receivemessagethread()" style="text;strokeColor=none;fillColor=none;align=left;verticalAlign=middle;spacingLeft=4;spacingRight=4;overflow=hidden;rotatable=0;points=[[0,0.5],[1,0.5]];portConstraint=eastwest;" vertex="1" parent="c3OAgtWylzfshOaT56zN-75">
          <mxGeometry y="78" width="200" height="22" as="geometry" />
        </mxCell>
        <mxCell id="c3OAgtWylzfshOaT56zN-81" value="&lt;b&gt;&lt;font style=&quot;font-size: 12px&quot;&gt;SERVER&lt;/font&gt;&lt;/b&gt;" style="verticalAlign=top;align=left;spacingTop=8;spacingLeft=2;spacingRight=12;shape=cube;size=10;direction=south;fontStyle=4;html=1;rounded=0;shadow=0;glass=0;sketch=0;fontSize=11;strokeColor=default;strokeWidth=1;fillColor=none;" vertex="1" parent="WIyWlLk6GJQsqaUBKTNV-1">
          <mxGeometry x="310" y="51" width="260" height="209" as="geometry" />
        </mxCell>
      </root>
    </mxGraphModel>
  </diagram>
</mxfile>
